<?xml version="1.0" encoding="UTF-8" standalone="no"?>
<svg
   xmlns:dc="http://purl.org/dc/elements/1.1/"
   xmlns:cc="http://creativecommons.org/ns#"
   xmlns:rdf="http://www.w3.org/1999/02/22-rdf-syntax-ns#"
   xmlns:svg="http://www.w3.org/2000/svg"
   xmlns="http://www.w3.org/2000/svg"
   id="svg243"
   version="1.1"
   viewBox="0 0 204.7937 56.230804"
   height="56.230804mm"
   width="204.7937mm">
  <defs
     id="defs237" />
  <metadata
     id="metadata240">
    <rdf:RDF>
      <cc:Work
         rdf:about="">
        <dc:format>image/svg+xml</dc:format>
        <dc:type
           rdf:resource="http://purl.org/dc/dcmitype/StillImage" />
        <dc:title></dc:title>
      </cc:Work>
    </rdf:RDF>
  </metadata>
  <g
     transform="translate(-7.9721943,-30.759598)"
     id="layer1">
    <g
       id="g199"
       transform="matrix(0.26458333,0,0,0.26458333,-99.134497,-46.797307)">
      <rect
         style="fill:#ffffff;fill-opacity:1;stroke:#003399;stroke-width:2.68979192;stroke-miterlimit:4;stroke-dasharray:none;stroke-opacity:1"
         id="obramowaniezew"
         y="294.47336"
         x="406.15759"
         ry="11.815963"
         rx="13.410892"
         height="209.83609"
         width="771.33368" />
      <rect
         style="fill:#003399;fill-opacity:1;stroke:none;stroke-width:0.10655572"
         id="obramowaniewew"
         y="305.03574"
         x="417.21472"
         ry="7.0957413"
         rx="7.2860184"
         height="189.70436"
         width="750.03705" />
      <rect
         style="fill:#ffffff;fill-opacity:1;stroke:none;stroke-width:0.11575262"
         id="ramkaznaknumer"
         y="368.11343"
         x="440.57492"
         ry="7.0957413"
         rx="8.5980186"
         height="64.009651"
         width="199.98331" />
      <rect
         style="fill:#003399;fill-opacity:1;stroke:none;stroke-width:0.10655572"
         id="ramkaznakuautostrady"
         y="372.95068"
         x="445.05219"
         ry="1.968259"
         rx="1.7428077"
         height="53.754704"
         width="42.737728" />
      <rect
         style="fill:#d40000;fill-opacity:1;stroke:none;stroke-width:0.12056199"
         id="ramkanumeruautostrady"
         y="372.95068"
         x="493.23032"
         ry="1.968259"
         rx="2.2310879"
         height="53.754704"
         width="142.46785" />
      <g
         id="autostrada"
         transform="matrix(0.10642118,0,0,0.10577653,403.5315,372.60963)">
        <path
           style="fill:#ffffff"
           id="gl"
           d="M 513.68031,194.30316 540.05261,9.989032 h 30.259 l -2.84599,184.314128 z" />
        <path
           style="fill:#ffffff"
           id="gp"
           d="M 667.81858,194.30316 641.44627,9.989032 h -30.259 l 2.84599,184.314128 z" />
        <path
           style="fill:#ffffff;fill-opacity:1;stroke:none"
           id="deska"
           d="m 399.82079,204.58938 h 381.74484 v 9.86823 h -47.95616 l 9.0026,50.7262 h -40.51169 l 10.3876,-50.7262 H 470.11031 l 10.04137,51.07244 h -40.33857 l 10.04135,-51.24556 h -49.68742 z" />
        <path
           style="fill:#ffffff"
           id="dl"
           d="m 566.27366,264.9393 h -63.27433 l -34.27068,235.87633 h 93.12341 z" />
        <path
           style="fill:#ffffff"
           id="dp"
           d="m 615.59504,264.9393 h 63.27432 l 34.27068,235.87633 h -93.1234 z" />
      </g>
      <path
         style="fill:#ffffff;fill-opacity:1;stroke:none;stroke-width:0.10655572"
         id="strzalka"
         d="m 1134.7397,367.27155 -38.7593,9.35017 8.757,8.69309 -28.847,28.70677 11.4547,11.37171 28.847,-28.70677 8.6258,8.56314 z" />
      <g
         aria-label="Frankfurt"
         style="fill:#ffffff;fill-opacity:1;stroke:none"
         id="frankfurt"
         transform="matrix(0.10687993,0,0,0.1062325,422.80862,293.13255)">
        <path
           d="m 2515.2919,795.92243 v 154.7556 h 169.264 v 87.05007 h -169.264 v 241.8056 h -87.05 V 708.87241 h 304.6751 v 87.05002 z"
           id="path5770" />
        <path
           d="m 2806.0632,902.31691 h 87.05 v 27.80765 q 43.525,-27.80765 96.7223,-27.80765 v 87.05003 q -53.1973,0 -96.7223,39.89796 v 250.2688 h -87.05 z"
           id="path5772" />
        <path
           d="m 3112.5518,1223.9184 q -51.9882,-55.6153 -51.9882,-132.9931 0,-77.3778 51.9882,-132.9931 53.1972,-55.61529 113.6486,-55.61529 61.6604,0 105.1855,26.59862 v -26.59862 h 87.05 v 285.33069 l 22.9715,91.8861 h -88.259 l -8.4632,-36.2709 q -47.1521,36.2709 -113.6487,36.2709 -65.2875,0 -118.4847,-55.6153 z m 62.8694,-205.5348 q -25.3896,29.0167 -25.3896,72.5417 0,43.525 25.3896,72.5417 26.5986,29.0167 66.4966,29.0167 39.8979,0 65.2875,-29.0167 26.5986,-29.0167 26.5986,-72.5417 0,-43.525 -26.5986,-72.5417 -25.3896,-29.01666 -65.2875,-29.01666 -39.898,0 -66.4966,29.01666 z"
           id="path5774" />
        <path
           d="m 3561.7058,902.31691 h 87.05 v 27.80765 q 38.6889,-27.80765 87.05,-27.80765 71.3327,0 112.4396,41.10696 42.316,41.10695 42.316,99.14033 v 236.9695 h -87.05 v -212.789 q 0,-32.6437 -22.9716,-54.4062 -21.7625,-22.97156 -54.4062,-22.97156 -32.6438,0 -55.6153,22.97156 -21.7625,21.7625 -21.7625,54.4062 v 212.789 h -87.05 z"
           id="path5776" />
        <path
           d="m 4036.2493,708.87241 h 87.0501 v 338.52789 h 43.525 l 108.8125,-145.08339 h 108.8125 l -141.4563,188.60839 141.4563,188.6084 h -108.8125 l -108.8125,-145.0834 h -43.525 v 145.0834 h -87.0501 z"
           id="path5778" />
        <path
           d="m 4408.0254,989.36694 v -87.05003 h 72.5417 q 0,-82.21392 55.6153,-137.82921 55.6153,-55.61529 128.157,-55.61529 v 87.05002 q -37.4799,0 -67.7056,29.01668 -29.0167,29.01667 -29.0167,77.3778 h 72.5417 v 87.05003 h -72.5417 v 290.16676 h -87.05 V 989.36694 Z"
           id="path5780" />
        <path
           d="m 4720.5591,902.31691 h 87.0501 v 224.87919 q 0,32.6438 21.7625,55.6153 22.9715,21.7625 55.6153,21.7625 32.6437,0 54.4062,-21.7625 22.9716,-22.9715 22.9716,-55.6153 V 902.31691 h 87.05 v 224.87919 q 0,67.7056 -48.3611,116.0667 -48.3612,48.3612 -116.0667,48.3612 -67.7056,0 -116.0667,-48.3612 -48.3612,-48.3611 -48.3612,-116.0667 z"
           id="path5782" />
        <path
           d="m 5177.2697,902.31691 h 87.05 v 27.80765 q 43.5251,-27.80765 96.7223,-27.80765 v 87.05003 q -53.1972,0 -96.7223,39.89796 v 250.2688 h -87.05 z"
           id="path5784" />
        <path
           d="m 5482.5492,758.44256 87.05,-43.52501 v 187.39936 h 72.5417 v 87.05003 h -72.5417 v 149.91946 q 4.8361,24.1806 15.7173,36.2709 12.0903,10.8812 38.6889,21.7625 l 27.8077,7.2541 -31.4347,74.9598 q -55.6153,0 -96.7223,-41.107 -41.1069,-41.1069 -41.1069,-99.1403 V 989.36694 h -72.5417 v -87.05003 h 72.5417 z"
           id="path5786" />
      </g>
      <g
         aria-label="2020"
         style="font-style:normal;font-variant:normal;font-weight:600;font-stretch:normal;font-size:53.33333206px;line-height:25px;font-family:Drogowskaz_lekki_owalny;-inkscape-font-specification:'Drogowskaz_lekki_owalny, Semi-Bold';font-variant-ligatures:normal;font-variant-caps:normal;font-variant-numeric:normal;font-feature-settings:normal;text-align:start;letter-spacing:0px;word-spacing:0px;writing-mode:lr-tb;text-anchor:start;fill:#ffffff;fill-opacity:1;stroke:none"
         id="rok2020">
        <path
           d="m 528.85254,412.65881 v 6 h -21 v -3.91666 l 15.58333,-20.91667 q 1.08334,-1.41667 1.08334,-3.16667 0,-2.25 -1.58334,-3.75 -1.5,-1.58333 -3.75,-1.58333 -2.25,0 -3.83333,1.58333 -1.5,1.5 -1.5,3.41667 h -6 q 0,-4.33333 3.33333,-7.66667 3.33334,-3.33333 8,-3.33333 4.66667,0 8,3.33333 3.33334,3.33334 3.33334,8 0,3.91667 -2.33334,7 l -11.25,15 z"
           id="path1101" />
        <path
           d="m 543.81087,388.99215 q -1.66667,4.83333 -1.66667,10 0,5.16666 1.66667,10 0.58333,1.66666 2,2.66666 1.5,1 3.33333,1 1.83334,0 3.25,-1 1.5,-1 2.08334,-2.66666 1.66666,-4.83334 1.66666,-10 0,-5.16667 -1.66666,-10 -0.58334,-1.66667 -2.08334,-2.66667 -1.41666,-1 -3.25,-1 -1.83333,0 -3.33333,1 -1.41667,1 -2,2.66667 z m -5.33333,22.25 q -2.33333,-6.75 -2.33333,-12.25 0,-5.5 2.33333,-12.25 1.16666,-3.25 4.08333,-5.33334 2.91667,-2.08333 6.58333,-2.08333 3.66667,0 6.58334,2.08333 2.91666,2.08334 4.08333,5.33334 2.33333,6.75 2.33333,12.25 0,5.5 -2.33333,12.25 -1.16667,3.25 -4.08333,5.33333 -2.91667,2.08333 -6.58334,2.08333 -3.66666,0 -6.58333,-2.08333 -2.91667,-2.08333 -4.08333,-5.33333 z"
           id="path1103" />
        <path
           d="m 590.41504,412.65881 v 6 h -21 v -3.91666 l 15.58333,-20.91667 q 1.08334,-1.41667 1.08334,-3.16667 0,-2.25 -1.58334,-3.75 -1.5,-1.58333 -3.75,-1.58333 -2.25,0 -3.83333,1.58333 -1.5,1.5 -1.5,3.41667 h -6 q 0,-4.33333 3.33333,-7.66667 3.33334,-3.33333 8,-3.33333 4.66667,0 8,3.33333 3.33334,3.33334 3.33334,8 0,3.91667 -2.33334,7 l -11.25,15 z"
           id="path1105" />
        <path
           d="m 605.37337,388.99215 q -1.66667,4.83333 -1.66667,10 0,5.16666 1.66667,10 0.58333,1.66666 2,2.66666 1.5,1 3.33333,1 1.83334,0 3.25,-1 1.5,-1 2.08334,-2.66666 1.66666,-4.83334 1.66666,-10 0,-5.16667 -1.66666,-10 -0.58334,-1.66667 -2.08334,-2.66667 -1.41666,-1 -3.25,-1 -1.83333,0 -3.33333,1 -1.41667,1 -2,2.66667 z m -5.33333,22.25 q -2.33334,-6.75 -2.33334,-12.25 0,-5.5 2.33334,-12.25 1.16666,-3.25 4.08333,-5.33334 2.91667,-2.08333 6.58333,-2.08333 3.66667,0 6.58334,2.08333 2.91666,2.08334 4.08333,5.33334 2.33333,6.75 2.33333,12.25 0,5.5 -2.33333,12.25 -1.16667,3.25 -4.08333,5.33333 -2.91667,2.08333 -6.58334,2.08333 -3.66666,0 -6.58333,-2.08333 -2.91667,-2.08333 -4.08333,-5.33333 z"
           id="path1107" />
      </g>
    </g>
  </g>
</svg>
